PathFileType	4	(X/Y/Z)	E:\Qualisys_Data\Carbon_Farble_Plate\Data\Amateur_Runner\S1\T2\S1T2V21_c3d.trc
DataRate	CameraRate	NumFrames	NumMarkers	Units	OrigDataRate	OrigDataStartFrame	OrigNumFrames
200.000000	200.000000	4	39	mm	200.000000	106	284
Frame#	Time	LSHO			RSHO			LICST			RICST			LASIS			LHEEL			RASIS			LTROC			RTROC			SACR			LTH1			LSK4			LTH2			LTH3			RHM5			LSK2			LTH4			RTH1			LTOE			RTH2			RTH3			RTH4			LLEP			RLEP			LSK1			LSK3			RSK1			LHM5			RSK2			LFT1			RSK3			RSK4			LLME			RLME			RTOE			RHEEL			RFT1			RFT2			LFT2			
		X1	Y1	Z1	X2	Y2	Z2	X3	Y3	Z3	X4	Y4	Z4	X5	Y5	Z5	X6	Y6	Z6	X7	Y7	Z7	X8	Y8	Z8	X9	Y9	Z9	X10	Y10	Z10	X11	Y11	Z11	X12	Y12	Z12	X13	Y13	Z13	X14	Y14	Z14	X15	Y15	Z15	X16	Y16	Z16	X17	Y17	Z17	X18	Y18	Z18	X19	Y19	Z19	X20	Y20	Z20	X21	Y21	Z21	X22	Y22	Z22	X23	Y23	Z23	X24	Y24	Z24	X25	Y25	Z25	X26	Y26	Z26	X27	Y27	Z27	X28	Y28	Z28	X29	Y29	Z29	X30	Y30	Z30	X31	Y31	Z31	X32	Y32	Z32	X33	Y33	Z33	X34	Y34	Z34	X35	Y35	Z35	X36	Y36	Z36	X37	Y37	Z37	X38	Y38	Z38	X39	Y39	Z39	

107	0.53	-392.4613647460938	1476.341186523438	-578.1612548828125	-462.9187316894531	1494.696655273438	-255.0303039550781	-455.4140930175781	1019.36962890625	-541.6058349609375	-462.5445251464844	1045.624267578125	-240.3846435546875	-412.1747131347656	981.006103515625	-512.5066528320312	-857.4421997070312	141.2509460449219	-410.4296264648438	-419.3648681640625	1002.423828125	-246.6041107177734	-531.3751831054688	902.4620361328124	-551.1111450195312	-512.9659423828125	902.831298828125	-213.7373657226562	-577.5928344726562	1044.056274414062	-390.7398071289062	-428.5303649902344	737.8417358398438	-523.7039794921875	-755.1956787109375	285.5835266113281	-452.802978515625	-508.9643859863281	743.4501953125	-551.8975830078125	-445.1105651855469	636.646240234375	-504.8392333984375	-412.8140869140625	181.0787963867188	-228.4203643798828	-694.7105712890625	358.6873168945312	-492.9103088378906	-528.4351806640625	648.1192626953125	-524.58154296875	-335.0755920410156	857.7374267578125	-233.0069732666016	-621.7108764648438	58.31003570556641	-432.3815612792969	-392.3160400390625	806.9435424804688	-206.4942626953125	-267.8171081542969	781.2315063476562	-233.4570617675781	-329.6435241699219	729.2442016601562	-216.8562316894531	-526.4383544921875	494.4883117675781	-482.9822387695312	-214.3388977050781	608.5397338867188	-251.2284698486328	-630.3316040039062	307.2910461425781	-479.2291870117188	-697.8925170898438	232.2731628417969	-471.5126037597656	-318.0590515136719	458.9313354492188	-240.719970703125	-696.6279907226562	54.38262939453125	-499.71044921875	-381.3312072753906	510.3182067871094	-257.32958984375	-855.7781372070312	108.8090515136719	-387.8682250976562	-378.3470764160156	378.7742919921875	-253.3326873779297	-438.3402404785156	428.9346008300781	-278.9390563964844	-792.025146484375	158.2486419677734	-464.6456298828125	-485.4851684570312	300.6177673339844	-257.6947326660156	-345.5091857910156	160.8157043457031	-297.3518981933594	-558.6995239257812	297.6861267089844	-309.2236938476562	-562.37890625	262.7267150878906	-336.0732727050781	-572.0155029296875	272.2770690917969	-282.963623046875	-862.8707885742188	111.1374359130859	-441.4504699707031
108	0.535	-370.3255004882812	1480.491943359375	-576.7582397460938	-444.5048217773438	1497.947387695312	-254.691162109375	-432.2287902832031	1021.007446289062	-541.0166625976562	-440.4951782226562	1048.883911132812	-240.5760192871094	-390.6166076660156	982.345703125	-511.3538513183594	-852.561279296875	148.4140319824219	-411.2835388183594	-397.7872924804688	1005.0771484375	-247.8466033935547	-509.2785949707031	905.2581176757812	-551.1795043945312	-490.7948303222656	906.8580932617188	-213.1418609619141	-555.1572875976562	1047.461669921875	-390.94921875	-410.0050354003906	739.6439208984375	-521.3241577148438	-747.5910034179688	293.0329895019531	-452.29638671875	-489.9873962402344	747.0925903320312	-551.640625	-429.5999755859375	639.1015625	-502.3884887695312	-369.6991271972656	176.4779815673828	-228.2779541015625	-686.89697265625	366.1427612304688	-492.6406860351562	-512.04541015625	652.0890502929688	-523.8721313476562	-312.931640625	863.1044311523438	-233.8519592285156	-620.561767578125	57.99193572998047	-432.7399291992188	-369.5966796875	812.1865234375	-206.4061279296875	-245.3636932373047	786.5992431640625	-233.9967651367188	-306.75048828125	734.2010498046875	-217.5916290283203	-516.1839599609375	498.6798706054688	-482.2633972167969	-191.5539703369141	613.9676513671875	-250.9425048828125	-622.8629760742188	313.4613952636719	-480.3257141113281	-691.2994995117188	239.3031463623047	-472.7565612792969	-288.6581726074219	458.9896545410156	-240.2014007568359	-695.2838134765625	55.32597351074219	-499.450927734375	-354.079833984375	507.3332214355469	-258.224609375	-851.7491455078125	116.0601577758789	-388.5908203125	-345.1143188476562	376.5447387695312	-252.6854248046875	-407.3753967285156	423.2958984375	-278.5769348144531	-786.4393920898438	165.3589324951172	-465.0102233886719	-447.6409301757812	292.197265625	-257.3726806640625	-301.2142028808594	159.7228546142578	-297.0727233886719	-521.0689697265625	285.641845703125	-309.158935546875	-522.5687866210938	251.1490325927734	-336.8858337402344	-533.3361206054688	259.8775329589844	-282.4950561523438	-858.9071655273438	118.3055877685547	-441.9352111816406
109	0.54	-347.71484375	1484.6259765625	-575.2466430664062	-425.6552124023438	1501.212158203125	-254.2457733154297	-409.4485778808594	1023.309875488281	-540.5906982421875	-418.3121643066406	1052.516235351562	-241.0686187744141	-366.1607055664062	984.7691650390624	-512.9772338867188	-847.5794677734375	156.1408233642578	-411.8373718261719	-375.3186340332031	1008.332397460938	-247.6305847167969	-487.4959716796875	908.0344848632812	-551.0956420898438	-468.6473999023438	911.1237182617188	-212.7460174560547	-533.5265502929688	1051.08984375	-391.9400634765625	-392.0346069335938	741.6135864257812	-519.4806518554688	-738.9686279296875	300.4224243164062	-452.0851135253906	-470.6628112792969	750.5628662109375	-551.197265625	-413.6997375488281	641.4480590820312	-500.1274108886719	-326.3611755371094	172.0364379882812	-228.0753784179688	-677.9356079101562	373.4801635742188	-492.0943603515625	-495.8505554199219	656.1748657226562	-523.2725219726562	-290.405517578125	867.85107421875	-234.7130584716797	-618.9409790039062	58.00117111206055	-433.438720703125	-346.8521423339844	817.2593383789062	-206.1330413818359	-222.8619232177734	791.5253295898438	-234.3274078369141	-283.7290344238281	739.3548583984375	-217.542724609375	-504.5118103027344	503.8074035644531	-481.9725036621094	-169.0066375732422	618.8163452148438	-250.8086853027344	-613.7864990234375	319.8853149414062	-481.395751953125	-683.8391723632812	246.3244323730469	-474.1930847167969	-259.4803161621094	458.917236328125	-239.5932464599609	-693.9490356445312	56.02674102783203	-499.7391052246094	-325.5468139648438	503.5534973144531	-257.7440795898438	-847.2655639648438	123.8176651000977	-388.8973083496094	-311.5769958496094	373.806640625	-252.0593719482422	-375.3884887695312	417.2581787109375	-278.9596252441406	-779.7282104492188	172.5507354736328	-465.6923828125	-410.074951171875	284.0934448242188	-257.2600708007812	-257.2674255371094	158.7667236328125	-296.7264404296875	-483.6441650390625	274.2886047363281	-307.7156372070312	-479.6342468261719	241.8173980712891	-339.4912414550781	-494.1621398925781	248.4028472900391	-280.9068298339844	-854.1007080078125	125.9854125976562	-442.327880859375
110	0.545	-325.93408203125	1489.0439453125	-573.4166870117188	-406.4674682617188	1504.223510742188	-253.8572387695312	-386.2089538574219	1026.207763671875	-540.6105346679688	-395.8023071289062	1056.128662109375	-240.8307189941406	-343.8417358398438	986.9576416015624	-512.2284545898438	-840.7532348632812	164.7236480712891	-412.2559509277344	-353.0861511230469	1011.417846679688	-247.5070037841797	-465.3997192382812	911.5671997070312	-550.677734375	-445.6725769042969	915.7636108398438	-211.631591796875	-510.8756408691406	1054.786743164062	-391.7910766601562	-373.2999877929688	743.4235229492188	-517.6278686523438	-729.577880859375	308.476806640625	-452.70068359375	-452.0804443359375	754.0278930664062	-550.8818359375	-397.5107727050781	643.9120483398438	-497.8747253417969	-283.1356811523438	167.6958312988281	-227.6715850830078	-667.9247436523438	380.9063110351562	-492.7277526855469	-478.6935729980469	660.3497314453125	-522.555908203125	-268.0294494628906	872.4014892578125	-235.4747161865234	-617.2457275390625	58.0817756652832	-434.1118469238281	-324.2149963378906	821.8045043945312	-206.4132995605469	-200.4593200683594	795.9178466796875	-235.2826995849609	-261.71142578125	743.9808349609375	-217.6007385253906	-492.1132507324219	508.4431762695312	-481.9425354003906	-147.5515899658203	623.5172119140625	-250.7605438232422	-604.3484497070312	326.2113342285156	-483.1195983886719	-675.290771484375	253.7211151123047	-475.7237854003906	-229.7592010498047	458.5627746582031	-237.838623046875	-693.0276489257812	57.56565475463867	-499.584716796875	-298.6103210449219	499.5836486816406	-257.1864624023438	-841.4302368164062	132.1420288085938	-388.8416748046875	-278.4378967285156	370.8276672363281	-251.3930969238281	-344.1117248535156	411.4367065429688	-278.6181335449219	-772.2249145507812	180.0191192626953	-466.5360717773438	-372.3738708496094	276.0970764160156	-256.9494018554688	-213.2855834960938	158.3607635498047	-296.90625	-444.5075378417969	262.2059936523438	-308.1942749023438	-439.6349487304688	230.4880676269531	-339.4534912109375	-454.1990661621094	236.2109069824219	-282.0990295410156	-848.516845703125	134.8091735839844	-442.4765625
